<svg width="1024" height="1024" viewBox="0 0 1024 1024" fill="none" xmlns="http://www.w3.org/2000/svg">
  <defs>
    <linearGradient id="bg" x1="176" y1="144" x2="848" y2="880" gradientUnits="userSpaceOnUse">
      <stop stop-color="#3B82F6"/>
      <stop offset="0.55" stop-color="#6366F1"/>
      <stop offset="1" stop-color="#8B5CF6"/>
    </linearGradient>
    <linearGradient id="glass" x1="256" y1="220" x2="768" y2="700" gradientUnits="userSpaceOnUse">
      <stop stop-color="white" stop-opacity="0.28"/>
      <stop offset="1" stop-color="white" stop-opacity="0.08"/>
    </linearGradient>
    <filter id="shadow" x="120" y="120" width="784" height="784" filterUnits="userSpaceOnUse" color-interpolation-filters="sRGB">
      <feFlood flood-opacity="0" result="BackgroundImageFix"/>
      <feColorMatrix in="SourceAlpha" type="matrix" values="0 0 0 0 0 0 0 0 0 0 0 0 0 0 0 0 0 0 127 0" result="hardAlpha"/>
      <feOffset dy="28"/>
      <feGaussianBlur stdDeviation="28"/>
      <feColorMatrix type="matrix" values="0 0 0 0 0.231373 0 0 0 0 0.321569 0 0 0 0 0.815686 0 0 0 0.24 0"/>
      <feBlend mode="normal" in2="BackgroundImageFix" result="effect1_dropShadow_1_1"/>
      <feBlend mode="normal" in="SourceGraphic" in2="effect1_dropShadow_1_1" result="shape"/>
    </filter>
  </defs>

  <g filter="url(#shadow)">
    <rect x="176" y="144" width="672" height="672" rx="184" fill="url(#bg)"/>
    <rect x="176" y="144" width="672" height="672" rx="184" fill="url(#glass)"/>
    <rect x="177.5" y="145.5" width="669" height="669" rx="182.5" stroke="white" stroke-opacity="0.14" stroke-width="3"/>
  </g>

  <g>
    <rect x="280" y="300" width="464" height="300" rx="56" fill="white" fill-opacity="0.16"/>
    <rect x="280" y="300" width="464" height="300" rx="56" stroke="white" stroke-opacity="0.48" stroke-width="18"/>
    <path d="M358 650H666" stroke="white" stroke-width="28" stroke-linecap="round"/>
    <path d="M470 704H554" stroke="white" stroke-width="28" stroke-linecap="round"/>
  </g>

  <g>
    <circle cx="390" cy="450" r="34" fill="#FF4D6D"/>
    <path d="M500 398C500 384.745 510.745 374 524 374H637.291C654.704 374 661.972 396.248 648.011 406.66L559.719 472.518C547.84 481.381 531 472.904 531 458.089V423.5H524C510.745 423.5 500 412.755 500 399.5V398Z" fill="white"/>
  </g>
</svg>